<?xml version="1.0" encoding="utf-8"?>
<svg version="1.1" width="15px" height="25px" xmlns:xlink="http://www.w3.org/1999/xlink" xmlns="http://www.w3.org/2000/svg">
  <g transform="translate(0 -250 )">
    <path d="M 14.7422680412371 1.50300601202405  C 14.914089347079 1.67000668002672  15 1.86205744822979  15 2.07915831663327  C 15 2.29625918503674  14.914089347079 2.48830995323981  14.7422680412371 2.65531062124249  L 4.61340206185567 12.5  L 14.7422680412371 22.3446893787575  C 14.914089347079 22.5116900467602  15 22.7037408149633  15 22.9208416833667  C 15 23.1379425517702  14.914089347079 23.3299933199733  14.7422680412371 23.496993987976  L 13.4536082474227 24.749498997996  C 13.2817869415808 24.9164996659987  13.0841924398625 25  12.860824742268 25  C 12.6374570446735 25  12.4398625429553 24.9164996659987  12.2680412371134 24.749498997996  L 0.257731958762887 13.0761523046092  C 0.0859106529209623 12.9091516366065  0 12.7171008684035  0 12.5  C 0 12.2828991315965  0.0859106529209623 12.0908483633935  0.257731958762887 11.9238476953908  L 12.2680412371134 0.250501002004008  C 12.4398625429553 0.0835003340013352  12.6374570446735 0  12.860824742268 0  C 13.0841924398625 0  13.2817869415808 0.0835003340013352  13.4536082474227 0.250501002004008  L 14.7422680412371 1.50300601202405  Z " fill-rule="nonzero" fill="#354a71" stroke="none" transform="matrix(1 0 0 1 0 250 )" />
  </g>
</svg>